<svg id="visual" viewBox="0 0 960 300" width="960" height="300" xmlns="http://www.w3.org/2000/svg" xmlns:xlink="http://www.w3.org/1999/xlink" version="1.1"><rect x="0" y="0" width="960" height="300" fill="#001220"></rect><path d="M0 107L22.8 108.8C45.7 110.7 91.3 114.3 137 111.8C182.7 109.3 228.3 100.7 274 93.8C319.7 87 365.3 82 411.2 87.2C457 92.3 503 107.7 548.8 109.3C594.7 111 640.3 99 686 96.5C731.7 94 777.3 101 823 102.5C868.7 104 914.3 100 937.2 98L960 96L960 0L937.2 0C914.3 0 868.7 0 823 0C777.3 0 731.7 0 686 0C640.3 0 594.7 0 548.8 0C503 0 457 0 411.2 0C365.3 0 319.7 0 274 0C228.3 0 182.7 0 137 0C91.3 0 45.7 0 22.8 0L0 0Z" fill="#fa7669"></path><path d="M0 96L22.8 89.8C45.7 83.7 91.3 71.3 137 65.2C182.7 59 228.3 59 274 63.3C319.7 67.7 365.3 76.3 411.2 79.2C457 82 503 79 548.8 76.3C594.7 73.7 640.3 71.3 686 69.5C731.7 67.7 777.3 66.3 823 70.5C868.7 74.7 914.3 84.3 937.2 89.2L960 94L960 0L937.2 0C914.3 0 868.7 0 823 0C777.3 0 731.7 0 686 0C640.3 0 594.7 0 548.8 0C503 0 457 0 411.2 0C365.3 0 319.7 0 274 0C228.3 0 182.7 0 137 0C91.3 0 45.7 0 22.8 0L0 0Z" fill="#ef6267"></path><path d="M0 55L22.8 56.3C45.7 57.7 91.3 60.3 137 63.3C182.7 66.3 228.3 69.7 274 71.8C319.7 74 365.3 75 411.2 71.8C457 68.7 503 61.3 548.8 61.2C594.7 61 640.3 68 686 66.8C731.7 65.7 777.3 56.3 823 51.7C868.7 47 914.3 47 937.2 47L960 47L960 0L937.2 0C914.3 0 868.7 0 823 0C777.3 0 731.7 0 686 0C640.3 0 594.7 0 548.8 0C503 0 457 0 411.2 0C365.3 0 319.7 0 274 0C228.3 0 182.7 0 137 0C91.3 0 45.7 0 22.8 0L0 0Z" fill="#e34e67"></path><path d="M0 28L22.8 31.8C45.7 35.7 91.3 43.3 137 44.3C182.7 45.3 228.3 39.7 274 40C319.7 40.3 365.3 46.7 411.2 47.2C457 47.7 503 42.3 548.8 38.5C594.7 34.7 640.3 32.3 686 32.7C731.7 33 777.3 36 823 39C868.7 42 914.3 45 937.2 46.5L960 48L960 0L937.2 0C914.3 0 868.7 0 823 0C777.3 0 731.7 0 686 0C640.3 0 594.7 0 548.8 0C503 0 457 0 411.2 0C365.3 0 319.7 0 274 0C228.3 0 182.7 0 137 0C91.3 0 45.7 0 22.8 0L0 0Z" fill="#d53a67"></path><path d="M0 13L22.8 15.8C45.7 18.7 91.3 24.3 137 25.7C182.7 27 228.3 24 274 24.5C319.7 25 365.3 29 411.2 28.8C457 28.7 503 24.3 548.8 22.2C594.7 20 640.3 20 686 22.3C731.7 24.7 777.3 29.3 823 29.5C868.7 29.7 914.3 25.3 937.2 23.2L960 21L960 0L937.2 0C914.3 0 868.7 0 823 0C777.3 0 731.7 0 686 0C640.3 0 594.7 0 548.8 0C503 0 457 0 411.2 0C365.3 0 319.7 0 274 0C228.3 0 182.7 0 137 0C91.3 0 45.7 0 22.8 0L0 0Z" fill="#c62368"></path></svg>